<svg width="53" height="53" viewBox="0 0 53 53" fill="none" xmlns="http://www.w3.org/2000/svg">
<rect width="53" height="53" rx="26.5" fill="#6941C6"/>
<path d="M14.8511 34.18C14.3178 34.18 13.9044 34.0333 13.6111 33.74C13.3311 33.4467 13.1911 33.0333 13.1911 32.5V21.4C13.1911 20.8533 13.3444 20.44 13.6511 20.16C13.9578 19.8667 14.3911 19.72 14.9511 19.72C15.4178 19.72 15.7844 19.8133 16.0511 20C16.3311 20.1733 16.5844 20.4667 16.8111 20.88L21.1111 28.6H20.4111L24.6911 20.88C24.9311 20.4667 25.1844 20.1733 25.4511 20C25.7311 19.8133 26.1044 19.72 26.5711 19.72C27.1044 19.72 27.5111 19.8667 27.7911 20.16C28.0844 20.44 28.2311 20.8533 28.2311 21.4V32.5C28.2311 33.0333 28.0911 33.4467 27.8111 33.74C27.5311 34.0333 27.1178 34.18 26.5711 34.18C26.0378 34.18 25.6244 34.0333 25.3311 33.74C25.0511 33.4467 24.9111 33.0333 24.9111 32.5V25.62H25.3311L22.1111 31.22C21.9244 31.5133 21.7244 31.7333 21.5111 31.88C21.3111 32.0267 21.0378 32.1 20.6911 32.1C20.3578 32.1 20.0844 32.0267 19.8711 31.88C19.6578 31.7333 19.4644 31.5133 19.2911 31.22L16.0511 25.6H16.5111V32.5C16.5111 33.0333 16.3711 33.4467 16.0911 33.74C15.8111 34.0333 15.3978 34.18 14.8511 34.18ZM32.6869 34.18C32.1002 34.18 31.6402 34.02 31.3069 33.7C30.9869 33.3667 30.8269 32.8933 30.8269 32.28V21.8C30.8269 21.1867 30.9869 20.72 31.3069 20.4C31.6402 20.0667 32.1202 19.9 32.7469 19.9H39.4069C39.8869 19.9 40.2469 20.02 40.4869 20.26C40.7269 20.5 40.8469 20.8467 40.8469 21.3C40.8469 21.7667 40.7269 22.1267 40.4869 22.38C40.2469 22.62 39.8869 22.74 39.4069 22.74H34.5069V25.58H38.9669C39.4335 25.58 39.7869 25.7 40.0269 25.94C40.2802 26.18 40.4069 26.5267 40.4069 26.98C40.4069 27.4467 40.2802 27.8 40.0269 28.04C39.7869 28.28 39.4335 28.4 38.9669 28.4H34.5069V32.28C34.5069 33.5467 33.9002 34.18 32.6869 34.18Z" fill="white"/>
</svg>
